<svg xmlns="http://www.w3.org/2000/svg"  viewBox="0 0 64 64" width="512px" height="512px"><linearGradient id="4bNNcoIKS5KNcUYwS0eiUa" x1="32" x2="32" y1="4" y2="61.733" gradientUnits="userSpaceOnUse"><stop offset="0" stop-color="#1a6dff"/><stop offset="1" stop-color="#c822ff"/></linearGradient><path fill="url(#4bNNcoIKS5KNcUYwS0eiUa)" d="M32,58C17.663,58,6,46.336,6,32S17.663,6,32,6s26,11.664,26,26S46.337,58,32,58z M32,8	C18.767,8,8,18.767,8,32s10.767,24,24,24s24-10.767,24-24S45.233,8,32,8z"/><linearGradient id="4bNNcoIKS5KNcUYwS0eiUb" x1="32" x2="32" y1="18.696" y2="42.22" gradientUnits="userSpaceOnUse"><stop offset="0" stop-color="#6dc7ff"/><stop offset="1" stop-color="#e6abff"/></linearGradient><path fill="url(#4bNNcoIKS5KNcUYwS0eiUb)" d="M44.798,38.784L34,31.441V19c0-0.552-0.448-1-1-1h-2c-0.552,0-1,0.448-1,1v12.441	l-10.798,7.343c-0.457,0.311-0.575,0.933-0.265,1.389l1.125,1.654c0.311,0.457,0.932,0.575,1.389,0.264L32,34.919l10.548,7.173	c0.457,0.311,1.079,0.192,1.389-0.264l1.125-1.654C45.373,39.716,45.255,39.094,44.798,38.784z"/></svg>